<?xml version="1.0" encoding="utf-8"?>
<!-- Generator: Adobe Illustrator 16.0.0, SVG Export Plug-In . SVG Version: 6.00 Build 0)  -->
<!DOCTYPE svg PUBLIC "-//W3C//DTD SVG 1.1//EN" "http://www.w3.org/Graphics/SVG/1.1/DTD/svg11.dtd">
<svg version="1.1" id="Layer_1" xmlns="http://www.w3.org/2000/svg" xmlns:xlink="http://www.w3.org/1999/xlink" x="0px" y="0px"
	 width="49.38px" height="34.539px" viewBox="0 0 49.38 34.539" enable-background="new 0 0 49.38 34.539" xml:space="preserve">
<g>
	<path fill="#FFFFFF" d="M38.756,34.539H10.625C4.767,34.539,0,29.771,0,23.912c0-4.004,2.272-7.654,5.769-9.452
		c-0.056-0.413-0.084-0.826-0.084-1.236c0-5.269,3.749-9.839,8.914-10.867l0.114-0.019c0.455-0.055,0.914-0.082,1.362-0.082
		c2.82,0,4.961,1.066,6.33,2.044c1.242-2.084,3.837-4.291,8.511-4.3c6.863,0,12.445,5.576,12.445,12.43
		c0,0.607-0.047,1.222-0.139,1.837c3.732,1.718,6.158,5.442,6.158,9.646C49.38,29.771,44.615,34.539,38.756,34.539z M15.127,5.31
		c-3.677,0.762-6.443,4.153-6.443,7.914c0,0.575,0.079,1.137,0.241,1.719l0.372,1.335l-1.302,0.477C5.007,17.846,3,20.723,3,23.912
		c0,4.205,3.421,7.627,7.625,7.627h28.131c4.204,0,7.624-3.422,7.624-7.627c0-3.348-2.142-6.271-5.329-7.273l-1.355-0.427
		l0.353-1.377c0.207-0.807,0.312-1.616,0.312-2.405c0-5.199-4.236-9.43-9.442-9.43c-5.66,0.011-6.412,3.921-6.441,4.088l-0.57,3.245
		l-2.073-2.561c-0.08-0.096-2.134-2.517-5.759-2.517C15.764,5.256,15.446,5.273,15.127,5.31z"/>
</g>
</svg>
