<?xml version="1.0" encoding="utf-8"?>
<!-- Generator: Adobe Illustrator 16.0.0, SVG Export Plug-In . SVG Version: 6.00 Build 0)  -->
<!DOCTYPE svg PUBLIC "-//W3C//DTD SVG 1.1//EN" "http://www.w3.org/Graphics/SVG/1.1/DTD/svg11.dtd">
<svg version="1.1" id="Layer_1" xmlns="http://www.w3.org/2000/svg" xmlns:xlink="http://www.w3.org/1999/xlink" x="0px" y="0px"
	 width="44.347px" height="50.506px" viewBox="0 0 44.347 50.506" enable-background="new 0 0 44.347 50.506" xml:space="preserve">
<g id="Logo_3_">
	<g>
		<path fill="#F8F8EC" d="M9.386,30.86H7.215v-5.782H6.487v-1.83h0.729v-2.231c0-1.861,0.775-3.489,2.868-3.489
			c0.356,0,0.713,0.078,1.039,0.248v1.938c-0.279-0.14-0.559-0.264-0.884-0.264c-0.961,0-0.853,1.256-0.853,1.876v1.922h1.736v1.83
			H9.386V30.86z"/>
		<path fill="#F8F8EC" d="M14.161,24.039h0.03c0.435-0.666,1.086-1.038,1.892-1.038c0.311,0,0.621,0.077,0.899,0.186l-0.264,2.016
			c-0.264-0.187-0.573-0.279-0.898-0.279c-1.504,0-1.659,1.332-1.659,2.512v3.426H11.99v-7.612h2.171V24.039z"/>
		<path fill="#F8F8EC" d="M20.129,23.931h0.03c0.419-0.604,1.163-0.93,1.86-0.93c0.946,0,1.69,0.388,2.187,1.193
			c0.465-0.744,1.333-1.193,2.217-1.193c1.938,0,2.419,1.457,2.419,3.115v4.744h-2.171v-4c0-0.744,0.047-2.123-1.022-2.123
			c-1.179,0-1.163,1.596-1.163,2.387v3.736h-2.171v-3.861c0-0.744,0.093-2.262-1.038-2.262c-1.21,0-1.147,1.58-1.147,2.387v3.736
			h-2.171v-7.612h2.171V23.931z"/>
		<path fill="#F8F8EC" d="M35.584,30.147h-0.03c-0.45,0.619-1.256,0.961-2.047,0.961c-2.232,0-3.504-2.031-3.504-4.094
			c0-2.014,1.287-4.014,3.473-4.014c0.791,0,1.598,0.341,2.078,0.945h0.03v-6.233h2.171V30.86h-2.171V30.147z M35.802,27.046
			c0-1.023-0.683-2.123-1.799-2.123s-1.799,1.1-1.799,2.123s0.683,2.141,1.799,2.141S35.802,28.069,35.802,27.046z"/>
	</g>
	<path fill="#E5E4DB" d="M43.222,11.798L23.295,0.294c-0.683-0.393-1.559-0.394-2.247,0.001L1.125,11.799
		C0.431,12.2,0,12.947,0,13.748v23.005c0,0.801,0.432,1.549,1.125,1.949l19.927,11.504c0.341,0.197,0.729,0.301,1.122,0.301
		s0.78-0.104,1.125-0.301l19.924-11.504c0.693-0.4,1.125-1.148,1.125-1.949V13.748C44.347,12.947,43.916,12.2,43.222,11.798z
		 M3.25,14.325L22.173,3.399l18.924,10.926v21.852L22.173,47.103L3.25,36.177V14.325z"/>
</g>
</svg>
