<?xml version="1.0" encoding="utf-8"?>
<!-- Generator: Adobe Illustrator 16.0.0, SVG Export Plug-In . SVG Version: 6.00 Build 0)  -->
<!DOCTYPE svg PUBLIC "-//W3C//DTD SVG 1.1//EN" "http://www.w3.org/Graphics/SVG/1.1/DTD/svg11.dtd">
<svg version="1.1" id="Layer_1" xmlns="http://www.w3.org/2000/svg" xmlns:xlink="http://www.w3.org/1999/xlink" x="0px" y="0px"
	 width="53.535px" height="37.563px" viewBox="0 0 53.535 37.563" enable-background="new 0 0 53.535 37.563" xml:space="preserve">
<g id="Logo_1_">
	<path fill="#E5E4DB" d="M27.762,37.56l-17.146,0.004V37.56C4.752,37.56,0,32.808,0,26.945c0-3.918,2.144-7.297,5.301-9.136
		c-0.24-0.723-0.401-1.486-0.401-2.293c0-4.057,3.29-7.35,7.35-7.35c0.775,0,1.507,0.154,2.209,0.376
		C16.792,3.509,21.852,0,27.762,0V37.56z"/>
	<rect x="29.017" y="0.034" fill="#E5E4DB" width="5.162" height="5.162"/>
	<rect x="35.468" y="0.034" fill="#E5E4DB" width="5.162" height="5.162"/>
	<rect x="29.017" y="6.486" fill="#E5E4DB" width="5.162" height="5.162"/>
	<rect x="35.468" y="6.486" fill="#E5E4DB" width="5.162" height="5.162"/>
	<rect x="41.921" y="6.486" fill="#E5E4DB" width="5.161" height="5.162"/>
	<rect x="29.017" y="12.938" fill="#E5E4DB" width="5.162" height="5.162"/>
	<rect x="35.468" y="12.938" fill="#E5E4DB" width="5.162" height="5.162"/>
	<rect x="41.921" y="12.938" fill="#E5E4DB" width="5.161" height="5.162"/>
	<rect x="29.017" y="19.39" fill="#E5E4DB" width="5.162" height="5.162"/>
	<rect x="35.468" y="19.39" fill="#E5E4DB" width="5.162" height="5.162"/>
	<rect x="41.921" y="19.39" fill="#E5E4DB" width="5.161" height="5.162"/>
	<rect x="48.373" y="19.39" fill="#E5E4DB" width="5.161" height="5.162"/>
	<rect x="29.017" y="25.843" fill="#E5E4DB" width="5.162" height="5.162"/>
	<rect x="35.468" y="25.843" fill="#E5E4DB" width="5.162" height="5.162"/>
	<rect x="41.921" y="25.843" fill="#E5E4DB" width="5.161" height="5.162"/>
	<rect x="48.373" y="25.843" fill="#E5E4DB" width="5.161" height="5.162"/>
	<rect x="29.017" y="32.294" fill="#E5E4DB" width="5.162" height="5.162"/>
	<rect x="35.468" y="32.294" fill="#E5E4DB" width="5.162" height="5.162"/>
	<rect x="41.921" y="32.294" fill="#E5E4DB" width="5.161" height="5.162"/>
</g>
</svg>
