<?xml version="1.0" encoding="utf-8"?>
<!-- Generator: Adobe Illustrator 16.0.0, SVG Export Plug-In . SVG Version: 6.00 Build 0)  -->
<!DOCTYPE svg PUBLIC "-//W3C//DTD SVG 1.1//EN" "http://www.w3.org/Graphics/SVG/1.1/DTD/svg11.dtd">
<svg version="1.1" id="Layer_1" xmlns="http://www.w3.org/2000/svg" xmlns:xlink="http://www.w3.org/1999/xlink" x="0px" y="0px"
	 width="183.845px" height="222.14px" viewBox="0 0 183.845 222.14" enable-background="new 0 0 183.845 222.14"
	 xml:space="preserve">
<g>
	<g>
		<polygon fill="#FFCD0A" points="119.641,0.669 119.641,52.242 74.515,78.028 119.641,103.814 119.641,155.387 74.515,129.601 
			29.389,103.814 29.389,52.242 74.515,26.455 		"/>
		<polygon fill="#21B7E9" points="119.642,0.669 119.642,52.242 164.768,78.028 164.768,129.601 119.642,103.814 74.516,129.601 
			29.39,103.814 74.516,78.028 74.516,26.455 		"/>
		<g>
			<polygon fill="#8EC277" points="119.641,103.814 119.641,103.814 74.516,78.028 29.39,103.814 74.516,129.601 			"/>
			<polygon fill="#8EC277" points="74.516,26.455 74.516,78.027 119.641,52.242 119.641,0.669 			"/>
		</g>
	</g>
	<g>
		<g>
			<g>
				<path fill="#FFCD0A" d="M2.008,196.378h0.042c0.545-0.852,1.417-1.395,2.465-1.395c1.198,0,2.287,0.629,2.832,1.697
					c0.611-1.131,1.831-1.697,3.074-1.697c2.617,0,3.269,2.135,3.269,4.291v6.234h-1.744v-5.949c0-1.33-0.085-2.965-1.873-2.965
					c-2.007,0-2.224,1.941-2.224,3.487v5.427H6.106v-5.818c0-1.264-0.153-3.096-1.832-3.096c-2.047,0-2.266,2.072-2.266,3.619v5.295
					H0.263v-10.242h1.745V196.378z"/>
				<path fill="#FFCD0A" d="M18.092,200.759c0.023,1.896,1.374,3.422,3.357,3.422c1.482,0,2.441-0.894,3.118-2.115l1.48,0.85
					c-0.979,1.832-2.636,2.879-4.729,2.879c-3.052,0-5.012-2.335-5.012-5.275c0-3.03,1.764-5.535,4.969-5.535
					c3.292,0,5.035,2.724,4.861,5.775H18.092z M24.305,199.275c-0.239-1.481-1.482-2.68-3.006-2.68c-1.506,0-2.9,1.198-3.119,2.68
					H24.305z"/>
				<path fill="#FFCD0A" d="M32.893,197.64c-0.24-0.543-0.763-1.045-1.396-1.045c-0.609,0-1.264,0.479-1.264,1.135
					c0,0.938,1.177,1.285,2.376,1.785c1.199,0.502,2.377,1.223,2.377,2.943c0,1.941-1.569,3.336-3.467,3.336
					c-1.722,0-3.073-0.982-3.618-2.595l1.549-0.653c0.435,0.957,0.937,1.635,2.092,1.635c0.936,0,1.656-0.631,1.656-1.57
					c0-2.287-4.621-1.504-4.621-4.729c0-1.725,1.396-2.898,3.052-2.898c1.177,0,2.268,0.826,2.724,1.895L32.893,197.64z"/>
				<path fill="#FFCD0A" d="M36.75,200.41c0-3.009,2.377-5.426,5.384-5.426c3.008,0,5.385,2.417,5.385,5.426
					c0,3.008-2.399,5.385-5.385,5.385C39.148,205.794,36.75,203.417,36.75,200.41z M38.495,200.387c0,2.094,1.481,3.794,3.639,3.794
					c2.159,0,3.641-1.7,3.641-3.794c0-2.069-1.481-3.792-3.641-3.792C39.976,196.595,38.495,198.318,38.495,200.387z"/>
				<path fill="#FFCD0A" d="M54.273,197.64c-0.238-0.543-0.76-1.045-1.393-1.045c-0.611,0-1.264,0.479-1.264,1.135
					c0,0.938,1.177,1.285,2.376,1.785c1.199,0.502,2.376,1.223,2.376,2.943c0,1.941-1.57,3.336-3.467,3.336
					c-1.722,0-3.075-0.982-3.62-2.595l1.549-0.653c0.436,0.957,0.937,1.635,2.093,1.635c0.938,0,1.657-0.631,1.657-1.57
					c0-2.287-4.622-1.504-4.622-4.729c0-1.725,1.396-2.898,3.054-2.898c1.176,0,2.265,0.826,2.724,1.895L54.273,197.64z"/>
			</g>
			<g>
				<path fill="#41BBC3" d="M66.98,212.359c0,1.354,0.522,2.877,2.114,2.877c1.001,0,1.634-0.609,2.048-1.459l2.812,0.458
					c-0.741,2.136-2.616,3.337-4.86,3.337c-3.312,0-5.342-2.355-5.342-5.604s1.721-5.8,5.189-5.8c3.508,0,5.079,2.593,5.079,5.823
					v0.367H66.98z M71.142,210.464c-0.152-1.091-0.85-2.158-2.027-2.158c-1.222,0-1.896,1.045-2.049,2.158H71.142z"/>
				<path fill="#41BBC3" d="M78.705,217.22h-3.052v-18.482h3.052V217.22z"/>
				<path fill="#41BBC3" d="M91.195,217.22h-3.008v-0.979h-0.044c-0.655,0.851-1.788,1.331-2.899,1.331
					c-3.139,0-4.928-2.857-4.928-5.756c0-2.834,1.812-5.647,4.884-5.647c1.112,0,2.247,0.48,2.987,1.354v-1.004h3.008V217.22z
					 M88.491,211.859c0-1.439-0.981-2.985-2.549-2.985c-1.57,0-2.529,1.546-2.529,2.985c0,1.438,0.959,3.006,2.529,3.006
					C87.51,214.865,88.491,213.297,88.491,211.859z"/>
				<path fill="#41BBC3" d="M99.106,209.045c-0.437-0.411-1.002-0.739-1.613-0.739c-0.501,0-1.003,0.393-1.003,0.916
					c0,0.784,1.112,1.002,2.202,1.481c1.111,0.479,2.201,1.222,2.201,3.073c0,2.376-1.918,3.795-4.164,3.795
					c-1.438,0-2.833-0.656-3.77-1.789l1.393-1.809c0.59,0.652,1.376,1.242,2.27,1.242c0.675,0,1.22-0.459,1.22-1.155
					c0-0.938-1.067-1.157-2.136-1.614c-1.067-0.455-2.136-1.092-2.136-2.812c0-2.007,1.395-3.467,3.399-3.467
					c1.135,0,2.572,0.351,3.443,1.114L99.106,209.045z"/>
				<path fill="#41BBC3" d="M106.19,217.22h-3.052v-8.131h-1.048v-2.57h1.048v-3.62h3.052v3.62h1.873v2.57h-1.873V217.22z"/>
				<path fill="#41BBC3" d="M112.444,202.026c0,1.005-0.805,1.812-1.809,1.812s-1.81-0.807-1.81-1.812
					c0-0.978,0.806-1.807,1.81-1.807S112.444,201.048,112.444,202.026z M112.161,217.22h-3.052v-10.701h3.052V217.22z"/>
				<path fill="#41BBC3" d="M121.968,209.789c-0.652-0.655-1.307-1.048-2.244-1.048c-1.722,0-2.704,1.614-2.704,3.185
					c0,1.678,1.068,3.074,2.812,3.074c0.829,0,1.592-0.416,2.136-1.025v2.941c-0.828,0.459-1.699,0.656-2.638,0.656
					c-3.159,0-5.406-2.596-5.406-5.67c0-3.182,2.334-5.733,5.561-5.733c0.85,0,1.744,0.22,2.483,0.679V209.789z"/>
				<path fill="#41BBC3" d="M129.576,209.045c-0.437-0.411-1.003-0.739-1.614-0.739c-0.501,0-1.003,0.393-1.003,0.916
					c0,0.784,1.112,1.002,2.202,1.481c1.113,0.479,2.202,1.222,2.202,3.073c0,2.376-1.917,3.795-4.161,3.795
					c-1.441,0-2.836-0.656-3.772-1.789l1.395-1.809c0.589,0.652,1.373,1.242,2.268,1.242c0.676,0,1.221-0.459,1.221-1.155
					c0-0.938-1.067-1.157-2.137-1.614c-1.067-0.455-2.137-1.092-2.137-2.812c0-2.007,1.396-3.467,3.4-3.467
					c1.134,0,2.573,0.351,3.445,1.114L129.576,209.045z"/>
				<path fill="#41BBC3" d="M135.7,212.359c0,1.354,0.522,2.877,2.114,2.877c1.001,0,1.636-0.609,2.05-1.459l2.812,0.458
					c-0.741,2.136-2.617,3.337-4.861,3.337c-3.313,0-5.341-2.355-5.341-5.604s1.723-5.8,5.187-5.8c3.51,0,5.081,2.593,5.081,5.823
					v0.367H135.7z M139.864,210.464c-0.151-1.091-0.85-2.158-2.028-2.158c-1.22,0-1.895,1.045-2.048,2.158H139.864z"/>
				<path fill="#41BBC3" d="M154.489,217.22h-3.009v-0.979h-0.042c-0.654,0.851-1.789,1.331-2.9,1.331
					c-3.14,0-4.927-2.857-4.927-5.756c0-2.834,1.809-5.647,4.884-5.647c1.113,0,2.246,0.48,2.985,1.354v-1.004h3.009V217.22z
					 M151.786,211.859c0-1.439-0.981-2.985-2.552-2.985c-1.568,0-2.527,1.546-2.527,2.985c0,1.438,0.959,3.006,2.527,3.006
					C150.804,214.865,151.786,213.297,151.786,211.859z"/>
				<path fill="#41BBC3" d="M159.958,207.628H160c0.61-0.938,1.526-1.46,2.661-1.46c0.437,0,0.872,0.11,1.263,0.265l-0.369,2.833
					c-0.371-0.265-0.808-0.393-1.265-0.393c-2.113,0-2.333,1.874-2.333,3.529v4.817h-3.05v-10.701h3.05V207.628z"/>
				<path fill="#41BBC3" d="M172.404,209.789c-0.653-0.655-1.309-1.048-2.245-1.048c-1.723,0-2.704,1.614-2.704,3.185
					c0,1.678,1.069,3.074,2.812,3.074c0.829,0,1.593-0.416,2.138-1.025v2.941c-0.829,0.459-1.7,0.656-2.638,0.656
					c-3.16,0-5.406-2.596-5.406-5.67c0-3.182,2.334-5.733,5.56-5.733c0.85,0,1.745,0.22,2.484,0.679V209.789z"/>
				<path fill="#41BBC3" d="M177.569,198.738v8.673h0.045c0.631-0.87,1.699-1.242,2.791-1.242c2.876,0,3.703,2.029,3.703,4.512v6.54
					h-3.051v-5.667c0-1.284,0.066-2.942-1.657-2.942c-1.809,0-1.831,2.027-1.831,3.314v5.295h-3.052v-18.482H177.569z"/>
			</g>
		</g>
		
			<rect x="58.851" y="187.246" transform="matrix(0.8944 0.4472 -0.4472 0.8944 98.4121 -4.7896)" fill="#FFCD0A" width="1" height="37.599"/>
	</g>
</g>
</svg>
