<?xml version="1.0" encoding="utf-8"?>
<!-- Generator: Adobe Illustrator 16.0.0, SVG Export Plug-In . SVG Version: 6.00 Build 0)  -->
<!DOCTYPE svg PUBLIC "-//W3C//DTD SVG 1.1//EN" "http://www.w3.org/Graphics/SVG/1.1/DTD/svg11.dtd">
<svg version="1.1" id="Layer_1" xmlns="http://www.w3.org/2000/svg" xmlns:xlink="http://www.w3.org/1999/xlink" x="0px" y="0px"
	 width="185px" height="225px" viewBox="0 0 185 225" enable-background="new 0 0 185 225" xml:space="preserve">
<g>
	<g>
		<polygon fill="#FFCD0A" points="117.847,-0.191 117.847,57.791 67.153,86.781 117.847,115.771 117.847,173.754 67.153,144.763 
			16.461,115.771 16.461,57.791 67.153,28.799 		"/>
		<polygon fill="#21B7E9" points="117.847,-0.191 117.847,57.791 168.539,86.781 168.539,144.763 117.847,115.771 67.154,144.763 
			16.462,115.771 67.154,86.781 67.154,28.799 		"/>
		<g>
			<polygon fill="#8CC541" points="117.847,115.771 117.847,115.771 67.154,86.781 16.462,115.771 67.154,144.763 			"/>
			<polygon fill="#8CC541" points="67.154,28.799 67.154,86.78 117.847,57.791 117.847,-0.191 			"/>
		</g>
	</g>
	<g>
		<g>
			<g>
				<path fill="#272626" d="M1.756,197.914h0.043c0.549-0.857,1.426-1.406,2.481-1.406c1.206,0,2.301,0.634,2.849,1.711
					c0.615-1.138,1.843-1.711,3.094-1.711c2.632,0,3.29,2.151,3.29,4.323v6.276h-1.755v-5.991c0-1.339-0.085-2.983-1.885-2.983
					c-2.02,0-2.237,1.952-2.237,3.513v5.462H5.879v-5.857c0-1.273-0.154-3.117-1.843-3.117c-2.06,0-2.28,2.086-2.28,3.644v5.331H0
					v-10.312h1.756V197.914z"/>
				<path fill="#272626" d="M17.941,202.326c0.023,1.907,1.383,3.443,3.379,3.443c1.492,0,2.457-0.899,3.138-2.127l1.49,0.855
					c-0.986,1.845-2.652,2.9-4.759,2.9c-3.071,0-5.043-2.354-5.043-5.313c0-3.053,1.775-5.577,5-5.577
					c3.313,0,5.066,2.745,4.892,5.818H17.941z M24.192,200.831c-0.24-1.493-1.491-2.698-3.025-2.698
					c-1.516,0-2.918,1.205-3.139,2.698H24.192z"/>
				<path fill="#272626" d="M32.834,199.183c-0.242-0.544-0.768-1.05-1.404-1.05c-0.613,0-1.272,0.481-1.272,1.144
					c0,0.942,1.184,1.293,2.391,1.796c1.207,0.504,2.392,1.232,2.392,2.962c0,1.956-1.579,3.364-3.489,3.364
					c-1.732,0-3.092-0.993-3.641-2.614l1.559-0.658c0.437,0.962,0.942,1.644,2.105,1.644c0.941,0,1.667-0.636,1.667-1.579
					c0-2.304-4.65-1.517-4.65-4.765c0-1.733,1.404-2.918,3.072-2.918c1.185,0,2.282,0.833,2.741,1.909L32.834,199.183z"/>
				<path fill="#272626" d="M36.716,201.973c0-3.03,2.392-5.465,5.417-5.465c3.027,0,5.418,2.435,5.418,5.465
					s-2.414,5.426-5.418,5.426S36.716,205.003,36.716,201.973z M38.472,201.951c0,2.109,1.491,3.818,3.662,3.818
					c2.173,0,3.664-1.709,3.664-3.818c0-2.087-1.491-3.818-3.664-3.818C39.962,198.133,38.472,199.864,38.472,201.951z"/>
				<path fill="#272626" d="M54.349,199.183c-0.239-0.544-0.765-1.05-1.402-1.05c-0.615,0-1.272,0.481-1.272,1.144
					c0,0.942,1.184,1.293,2.391,1.796c1.207,0.504,2.392,1.232,2.392,2.962c0,1.956-1.58,3.364-3.489,3.364
					c-1.732,0-3.094-0.993-3.643-2.614l1.558-0.658c0.438,0.962,0.943,1.644,2.106,1.644c0.943,0,1.667-0.636,1.667-1.579
					c0-2.304-4.65-1.517-4.65-4.765c0-1.733,1.404-2.918,3.073-2.918c1.183,0,2.279,0.833,2.741,1.909L54.349,199.183z"/>
			</g>
			<g>
				<path fill="#272626" d="M67.136,214.008c0,1.362,0.525,2.896,2.127,2.896c1.008,0,1.644-0.615,2.061-1.471l2.83,0.461
					c-0.745,2.152-2.632,3.362-4.891,3.362c-3.333,0-5.375-2.372-5.375-5.644s1.731-5.843,5.222-5.843
					c3.53,0,5.111,2.612,5.111,5.866v0.371H67.136z M71.324,212.099c-0.153-1.099-0.855-2.174-2.04-2.174
					c-1.229,0-1.908,1.053-2.062,2.174H71.324z"/>
				<path fill="#272626" d="M78.934,218.902h-3.07v-18.615h3.07V218.902z"/>
				<path fill="#272626" d="M91.503,218.902h-3.026v-0.984h-0.044c-0.659,0.856-1.799,1.339-2.917,1.339
					c-3.159,0-4.959-2.877-4.959-5.799c0-2.854,1.823-5.688,4.915-5.688c1.119,0,2.261,0.487,3.006,1.367v-1.013h3.026V218.902z
					 M88.782,213.505c0-1.451-0.987-3.008-2.565-3.008c-1.58,0-2.545,1.557-2.545,3.008c0,1.447,0.965,3.024,2.545,3.024
					C87.795,216.529,88.782,214.952,88.782,213.505z"/>
				<path fill="#272626" d="M99.465,210.671c-0.439-0.413-1.01-0.746-1.625-0.746c-0.503,0-1.008,0.396-1.008,0.922
					c0,0.791,1.118,1.011,2.215,1.492c1.118,0.481,2.215,1.232,2.215,3.095c0,2.394-1.93,3.823-4.19,3.823
					c-1.446,0-2.85-0.66-3.793-1.8l1.402-1.824c0.593,0.656,1.385,1.252,2.284,1.252c0.679,0,1.227-0.462,1.227-1.162
					c0-0.947-1.074-1.169-2.148-1.629c-1.074-0.457-2.149-1.099-2.149-2.831c0-2.021,1.403-3.492,3.42-3.492
					c1.142,0,2.589,0.354,3.465,1.126L99.465,210.671z"/>
				<path fill="#272626" d="M106.592,218.902h-3.07v-8.187h-1.055v-2.591h1.055v-3.647h3.07v3.647h1.885v2.591h-1.885V218.902z"/>
				<path fill="#272626" d="M112.885,203.599c0,1.014-0.81,1.828-1.819,1.828c-1.011,0-1.82-0.814-1.82-1.828
					c0-0.982,0.81-1.817,1.82-1.817C112.075,201.781,112.885,202.616,112.885,203.599z M112.602,218.902h-3.071v-10.777h3.071
					V218.902z"/>
				<path fill="#272626" d="M122.471,211.418c-0.657-0.659-1.315-1.056-2.259-1.056c-1.733,0-2.722,1.628-2.722,3.209
					c0,1.69,1.075,3.096,2.83,3.096c0.835,0,1.602-0.42,2.15-1.034v2.964c-0.834,0.463-1.71,0.66-2.655,0.66
					c-3.179,0-5.439-2.612-5.439-5.709c0-3.206,2.348-5.777,5.595-5.777c0.855,0,1.755,0.221,2.5,0.687V211.418z"/>
				<path fill="#272626" d="M130.126,210.671c-0.44-0.413-1.011-0.746-1.625-0.746c-0.504,0-1.009,0.396-1.009,0.922
					c0,0.791,1.118,1.011,2.216,1.492c1.119,0.481,2.216,1.232,2.216,3.095c0,2.394-1.93,3.823-4.188,3.823
					c-1.449,0-2.854-0.66-3.795-1.8l1.403-1.824c0.592,0.656,1.382,1.252,2.282,1.252c0.68,0,1.228-0.462,1.228-1.162
					c0-0.947-1.074-1.169-2.149-1.629c-1.075-0.457-2.151-1.099-2.151-2.831c0-2.021,1.404-3.492,3.423-3.492
					c1.14,0,2.588,0.354,3.467,1.126L130.126,210.671z"/>
				<path fill="#272626" d="M136.287,214.008c0,1.362,0.526,2.896,2.129,2.896c1.006,0,1.645-0.615,2.062-1.471l2.83,0.461
					c-0.746,2.152-2.634,3.362-4.892,3.362c-3.336,0-5.376-2.372-5.376-5.644s1.733-5.843,5.221-5.843
					c3.531,0,5.111,2.612,5.111,5.866v0.371H136.287z M140.478,212.099c-0.151-1.099-0.855-2.174-2.04-2.174
					c-1.229,0-1.906,1.053-2.062,2.174H140.478z"/>
				<path fill="#272626" d="M155.194,218.902h-3.026v-0.984h-0.044c-0.658,0.856-1.8,1.339-2.918,1.339
					c-3.159,0-4.957-2.877-4.957-5.799c0-2.854,1.82-5.688,4.913-5.688c1.121,0,2.261,0.487,3.006,1.367v-1.013h3.026V218.902z
					 M152.476,213.505c0-1.451-0.988-3.008-2.568-3.008c-1.578,0-2.543,1.557-2.543,3.008c0,1.447,0.965,3.024,2.543,3.024
					C151.487,216.529,152.476,214.952,152.476,213.505z"/>
				<path fill="#272626" d="M160.697,209.242h0.043c0.615-0.942,1.537-1.472,2.68-1.472c0.438,0,0.876,0.114,1.271,0.27
					l-0.373,2.854c-0.373-0.27-0.812-0.396-1.271-0.396c-2.126,0-2.349,1.885-2.349,3.554v4.852h-3.068v-10.777h3.068V209.242z"/>
				<path fill="#272626" d="M173.223,211.418c-0.658-0.659-1.316-1.056-2.26-1.056c-1.732,0-2.722,1.628-2.722,3.209
					c0,1.69,1.076,3.096,2.83,3.096c0.835,0,1.604-0.42,2.151-1.034v2.964c-0.835,0.463-1.711,0.66-2.655,0.66
					c-3.18,0-5.44-2.612-5.44-5.709c0-3.206,2.349-5.777,5.596-5.777c0.855,0,1.755,0.221,2.5,0.687V211.418z"/>
				<path fill="#272626" d="M178.419,200.287v8.736h0.046c0.636-0.877,1.71-1.253,2.809-1.253c2.895,0,3.727,2.047,3.727,4.545
					v6.587h-3.07v-5.707c0-1.294,0.066-2.962-1.667-2.962c-1.819,0-1.844,2.041-1.844,3.338v5.331h-3.069v-18.615H178.419z"/>
			</g>
		</g>
		
			<rect x="58.955" y="188.721" transform="matrix(0.894 0.448 -0.448 0.894 99.3252 -4.6341)" fill="#272626" width="1.007" height="37.858"/>
	</g>
</g>
</svg>
