<?xml version="1.0" encoding="utf-8"?>
<!-- Generator: Adobe Illustrator 16.0.0, SVG Export Plug-In . SVG Version: 6.00 Build 0)  -->
<!DOCTYPE svg PUBLIC "-//W3C//DTD SVG 1.1//EN" "http://www.w3.org/Graphics/SVG/1.1/DTD/svg11.dtd">
<svg version="1.1" xmlns="http://www.w3.org/2000/svg" xmlns:xlink="http://www.w3.org/1999/xlink" x="0px" y="0px" width="35px"
	 height="31px" viewBox="0 0 35 31" enable-background="new 0 0 35 31" xml:space="preserve">
<g id="Layer_1" display="none">
	<path id="ICON_1_" display="inline" fill="#272626" d="M30.55,10.154c0.084-0.49,0.126-0.981,0.126-1.461
		C30.676,3.9,26.771,0,21.972,0c-3.71,0.007-5.349,1.956-6.02,3.213c-0.97-0.749-2.532-1.594-4.641-1.594
		c-0.322,0-0.642,0.021-1.015,0.068C6.696,2.405,4.083,5.591,4.083,9.263c0,0.338,0.028,0.681,0.084,1.022
		C1.632,11.516,0,14.117,0,16.941c0,4.08,3.318,7.398,7.397,7.398h20.207c4.078,0,7.396-3.318,7.396-7.398
		C35,13.974,33.257,11.321,30.55,10.154z M27.604,22.654H7.397c-3.15,0-5.713-2.562-5.713-5.713c0-2.389,1.504-4.544,3.743-5.364
		l0.732-0.267l-0.209-0.75c-0.123-0.439-0.182-0.864-0.182-1.297c0-2.824,2.065-5.367,4.794-5.913
		c0.254-0.031,0.507-0.046,0.75-0.046c2.747,0,4.304,1.877,4.319,1.896l1.145,1.406l0.339-1.785
		c0.023-0.128,0.635-3.128,4.858-3.137c3.87,0,7.019,3.145,7.019,7.009c0,0.589-0.078,1.19-0.232,1.786l-0.197,0.774l0.761,0.24
		c2.388,0.752,3.993,2.941,3.993,5.449C33.315,20.092,30.754,22.654,27.604,22.654z"/>
</g>
<g id="Layer_2">
	<path fill="#272626" d="M17.43,29.455c-0.113,0-0.228-0.023-0.338-0.072C16.613,29.17,5.343,24.062,5.343,15.422V0h24.313v15.422
		c0,8.64-11.27,13.748-11.748,13.961c-0.133,0.059-0.271,0.08-0.408,0.068C17.477,29.453,17.454,29.455,17.43,29.455z M7.01,1.667
		v13.755c0,6.887,8.822,11.5,10.489,12.31c1.667-0.812,10.491-5.435,10.491-12.31V1.667H7.01z M23.307,11.281
		c0.32-0.329,0.314-0.857-0.014-1.179c-0.33-0.322-0.855-0.316-1.178,0.012l-5.824,5.95l-3.296-3.06
		c-0.337-0.313-0.863-0.294-1.178,0.044c-0.313,0.337-0.293,0.864,0.044,1.178l4.485,4.164L23.307,11.281z"/>
</g>
</svg>
