<?xml version="1.0" encoding="utf-8"?>
<!-- Generator: Adobe Illustrator 16.0.0, SVG Export Plug-In . SVG Version: 6.00 Build 0)  -->
<!DOCTYPE svg PUBLIC "-//W3C//DTD SVG 1.1//EN" "http://www.w3.org/Graphics/SVG/1.1/DTD/svg11.dtd">
<svg version="1.1" id="Layer_1" xmlns="http://www.w3.org/2000/svg" xmlns:xlink="http://www.w3.org/1999/xlink" x="0px" y="0px"
	 width="35px" height="31px" viewBox="0 0 35 31" enable-background="new 0 0 35 31" xml:space="preserve">
<path id="ICON_1_" fill="#272626" d="M30.55,10.154c0.084-0.49,0.126-0.981,0.126-1.461C30.676,3.9,26.771,0,21.972,0
	c-3.71,0.007-5.349,1.956-6.02,3.213c-0.97-0.749-2.532-1.594-4.641-1.594c-0.322,0-0.642,0.021-1.015,0.068
	C6.696,2.405,4.083,5.591,4.083,9.263c0,0.338,0.028,0.681,0.084,1.022C1.632,11.516,0,14.117,0,16.941
	c0,4.08,3.318,7.398,7.397,7.398h20.207c4.078,0,7.396-3.318,7.396-7.398C35,13.974,33.257,11.321,30.55,10.154z M27.604,22.654
	H7.397c-3.15,0-5.713-2.562-5.713-5.713c0-2.389,1.504-4.544,3.743-5.364l0.732-0.267l-0.209-0.75
	c-0.123-0.439-0.182-0.864-0.182-1.297c0-2.824,2.065-5.367,4.794-5.913c0.254-0.031,0.507-0.046,0.75-0.046
	c2.747,0,4.304,1.877,4.319,1.896l1.145,1.406l0.339-1.785c0.023-0.128,0.635-3.128,4.858-3.137c3.87,0,7.019,3.145,7.019,7.009
	c0,0.589-0.078,1.19-0.232,1.786l-0.197,0.774l0.761,0.24c2.388,0.752,3.993,2.941,3.993,5.449
	C33.315,20.092,30.754,22.654,27.604,22.654z"/>
</svg>
